<mxfile host="Electron" agent="Mozilla/5.0 (Windows NT 10.0; Win64; x64) AppleWebKit/537.36 (KHTML, like Gecko) draw.io/24.7.5 Chrome/126.0.6478.183 Electron/31.3.0 Safari/537.36" version="24.7.5">
  <diagram name="Page-1" id="0b70ZMaRgWOyrkBZcIlA">
    <mxGraphModel dx="1431" dy="1744" grid="1" gridSize="10" guides="1" tooltips="1" connect="1" arrows="1" fold="1" page="1" pageScale="1" pageWidth="1600" pageHeight="900" math="0" shadow="0">
      <root>
        <mxCell id="0" />
        <mxCell id="1" parent="0" />
        <mxCell id="oXOLVcFQioFcgYXvXkA7-15" value="Region" style="sketch=0;outlineConnect=0;gradientColor=none;html=1;whiteSpace=wrap;fontSize=14;fontStyle=1;shape=mxgraph.aws4.group;grIcon=mxgraph.aws4.group_region;strokeColor=#879196;fillColor=none;verticalAlign=top;align=left;spacingLeft=30;fontColor=#879196;dashed=1;" vertex="1" parent="1">
          <mxGeometry x="190" y="90" width="850" height="470" as="geometry" />
        </mxCell>
        <mxCell id="oXOLVcFQioFcgYXvXkA7-14" value="VPC" style="sketch=0;outlineConnect=0;gradientColor=none;html=1;whiteSpace=wrap;fontSize=14;fontStyle=1;shape=mxgraph.aws4.group;grIcon=mxgraph.aws4.group_vpc;strokeColor=#879196;fillColor=none;verticalAlign=top;align=left;spacingLeft=30;fontColor=#879196;dashed=0;" vertex="1" parent="1">
          <mxGeometry x="230" y="130" width="660" height="390" as="geometry" />
        </mxCell>
        <mxCell id="oXOLVcFQioFcgYXvXkA7-4" value="Private subnet" style="points=[[0,0],[0.25,0],[0.5,0],[0.75,0],[1,0],[1,0.25],[1,0.5],[1,0.75],[1,1],[0.75,1],[0.5,1],[0.25,1],[0,1],[0,0.75],[0,0.5],[0,0.25]];outlineConnect=0;gradientColor=none;html=1;whiteSpace=wrap;fontSize=14;fontStyle=1;container=1;pointerEvents=0;collapsible=0;recursiveResize=0;shape=mxgraph.aws4.group;grIcon=mxgraph.aws4.group_security_group;grStroke=0;strokeColor=#00A4A6;fillColor=#E6F6F7;verticalAlign=top;align=left;spacingLeft=30;fontColor=#147EBA;dashed=0;" vertex="1" parent="1">
          <mxGeometry x="500" y="340" width="310" height="140" as="geometry" />
        </mxCell>
        <mxCell id="oXOLVcFQioFcgYXvXkA7-6" value="&lt;span style=&quot;font-size: 14px;&quot;&gt;EC2&lt;/span&gt;" style="sketch=0;points=[[0,0,0],[0.25,0,0],[0.5,0,0],[0.75,0,0],[1,0,0],[0,1,0],[0.25,1,0],[0.5,1,0],[0.75,1,0],[1,1,0],[0,0.25,0],[0,0.5,0],[0,0.75,0],[1,0.25,0],[1,0.5,0],[1,0.75,0]];outlineConnect=0;fontColor=#232F3E;fillColor=#ED7100;strokeColor=#ffffff;dashed=0;verticalLabelPosition=bottom;verticalAlign=top;align=center;html=1;fontSize=14;fontStyle=1;aspect=fixed;shape=mxgraph.aws4.resourceIcon;resIcon=mxgraph.aws4.ec2;" vertex="1" parent="oXOLVcFQioFcgYXvXkA7-4">
          <mxGeometry x="75" y="50" width="60" height="60" as="geometry" />
        </mxCell>
        <mxCell id="oXOLVcFQioFcgYXvXkA7-5" value="Public subnet" style="points=[[0,0],[0.25,0],[0.5,0],[0.75,0],[1,0],[1,0.25],[1,0.5],[1,0.75],[1,1],[0.75,1],[0.5,1],[0.25,1],[0,1],[0,0.75],[0,0.5],[0,0.25]];outlineConnect=0;gradientColor=none;html=1;whiteSpace=wrap;fontSize=14;fontStyle=1;container=1;pointerEvents=0;collapsible=0;recursiveResize=0;shape=mxgraph.aws4.group;grIcon=mxgraph.aws4.group_security_group;grStroke=0;strokeColor=#7AA116;fillColor=#F2F6E8;verticalAlign=top;align=left;spacingLeft=30;fontColor=#248814;dashed=0;" vertex="1" parent="1">
          <mxGeometry x="500" y="190" width="310" height="140" as="geometry" />
        </mxCell>
        <mxCell id="oXOLVcFQioFcgYXvXkA7-7" value="&lt;span style=&quot;font-size: 14px;&quot;&gt;EC2&lt;/span&gt;" style="sketch=0;points=[[0,0,0],[0.25,0,0],[0.5,0,0],[0.75,0,0],[1,0,0],[0,1,0],[0.25,1,0],[0.5,1,0],[0.75,1,0],[1,1,0],[0,0.25,0],[0,0.5,0],[0,0.75,0],[1,0.25,0],[1,0.5,0],[1,0.75,0]];outlineConnect=0;fontColor=#232F3E;fillColor=#ED7100;strokeColor=#ffffff;dashed=0;verticalLabelPosition=bottom;verticalAlign=top;align=center;html=1;fontSize=14;fontStyle=1;aspect=fixed;shape=mxgraph.aws4.resourceIcon;resIcon=mxgraph.aws4.ec2;" vertex="1" parent="oXOLVcFQioFcgYXvXkA7-5">
          <mxGeometry x="76" y="50" width="59" height="59" as="geometry" />
        </mxCell>
        <mxCell id="oXOLVcFQioFcgYXvXkA7-13" value="Nat Gateway" style="sketch=0;outlineConnect=0;fontColor=#232F3E;gradientColor=none;fillColor=#8C4FFF;strokeColor=none;dashed=0;verticalLabelPosition=bottom;verticalAlign=top;align=center;html=1;fontSize=14;fontStyle=1;aspect=fixed;pointerEvents=1;shape=mxgraph.aws4.nat_gateway;" vertex="1" parent="oXOLVcFQioFcgYXvXkA7-5">
          <mxGeometry x="210" y="31" width="78" height="78" as="geometry" />
        </mxCell>
        <mxCell id="oXOLVcFQioFcgYXvXkA7-11" value="S3" style="sketch=0;points=[[0,0,0],[0.25,0,0],[0.5,0,0],[0.75,0,0],[1,0,0],[0,1,0],[0.25,1,0],[0.5,1,0],[0.75,1,0],[1,1,0],[0,0.25,0],[0,0.5,0],[0,0.75,0],[1,0.25,0],[1,0.5,0],[1,0.75,0]];outlineConnect=0;fontColor=#232F3E;fillColor=#7AA116;strokeColor=#ffffff;dashed=0;verticalLabelPosition=bottom;verticalAlign=top;align=center;html=1;fontSize=14;fontStyle=1;aspect=fixed;shape=mxgraph.aws4.resourceIcon;resIcon=mxgraph.aws4.s3;" vertex="1" parent="1">
          <mxGeometry x="930" y="292" width="78" height="78" as="geometry" />
        </mxCell>
        <mxCell id="oXOLVcFQioFcgYXvXkA7-12" value="&amp;nbsp; &amp;nbsp; &amp;nbsp; &amp;nbsp; &amp;nbsp; &amp;nbsp; &amp;nbsp;IGW" style="outlineConnect=0;dashed=0;verticalLabelPosition=bottom;verticalAlign=top;align=center;html=1;shape=mxgraph.aws3.internet_gateway;fillColor=#F58536;gradientColor=none;fontStyle=1;fontSize=14;" vertex="1" parent="1">
          <mxGeometry x="200" y="290.5" width="69" height="72" as="geometry" />
        </mxCell>
        <mxCell id="oXOLVcFQioFcgYXvXkA7-16" style="edgeStyle=orthogonalEdgeStyle;rounded=0;orthogonalLoop=1;jettySize=auto;html=1;exitX=1;exitY=1;exitDx=0;exitDy=0;exitPerimeter=0;fontSize=14;fontStyle=1" edge="1" parent="1" source="oXOLVcFQioFcgYXvXkA7-6" target="oXOLVcFQioFcgYXvXkA7-13">
          <mxGeometry relative="1" as="geometry">
            <Array as="points">
              <mxPoint x="700" y="450" />
              <mxPoint x="700" y="260" />
            </Array>
          </mxGeometry>
        </mxCell>
        <mxCell id="oXOLVcFQioFcgYXvXkA7-19" style="edgeStyle=orthogonalEdgeStyle;rounded=0;orthogonalLoop=1;jettySize=auto;html=1;fontSize=14;fontStyle=1" edge="1" parent="1" source="oXOLVcFQioFcgYXvXkA7-7" target="oXOLVcFQioFcgYXvXkA7-6">
          <mxGeometry relative="1" as="geometry">
            <Array as="points">
              <mxPoint x="670" y="290" />
              <mxPoint x="670" y="420" />
            </Array>
          </mxGeometry>
        </mxCell>
        <mxCell id="oXOLVcFQioFcgYXvXkA7-30" style="edgeStyle=orthogonalEdgeStyle;rounded=0;orthogonalLoop=1;jettySize=auto;html=1;startArrow=block;startFill=1;" edge="1" parent="1" source="oXOLVcFQioFcgYXvXkA7-20" target="oXOLVcFQioFcgYXvXkA7-7">
          <mxGeometry relative="1" as="geometry">
            <Array as="points">
              <mxPoint x="408" y="270" />
            </Array>
          </mxGeometry>
        </mxCell>
        <mxCell id="oXOLVcFQioFcgYXvXkA7-20" value="&lt;font style=&quot;font-size: 14px;&quot;&gt;&lt;span style=&quot;font-size: 14px;&quot;&gt;Route Table&lt;/span&gt;&lt;/font&gt;" style="outlineConnect=0;dashed=0;verticalLabelPosition=bottom;verticalAlign=top;align=center;html=1;shape=mxgraph.aws3.route_table;fillColor=#F58536;gradientColor=none;fontSize=14;fontStyle=1" vertex="1" parent="1">
          <mxGeometry x="370" y="292" width="75" height="69" as="geometry" />
        </mxCell>
        <mxCell id="oXOLVcFQioFcgYXvXkA7-24" style="edgeStyle=orthogonalEdgeStyle;rounded=0;orthogonalLoop=1;jettySize=auto;html=1;entryX=0;entryY=0.25;entryDx=0;entryDy=0;entryPerimeter=0;fontColor=#ff0000;strokeColor=#ff0000;fontSize=14;fontStyle=1" edge="1" parent="1" source="oXOLVcFQioFcgYXvXkA7-21" target="oXOLVcFQioFcgYXvXkA7-7">
          <mxGeometry relative="1" as="geometry">
            <mxPoint x="510" y="70" as="targetPoint" />
            <Array as="points">
              <mxPoint x="480" y="29" />
              <mxPoint x="480" y="255" />
            </Array>
          </mxGeometry>
        </mxCell>
        <mxCell id="oXOLVcFQioFcgYXvXkA7-21" value="Keypair" style="image;aspect=fixed;perimeter=ellipsePerimeter;html=1;align=center;shadow=0;dashed=0;spacingTop=3;image=img/lib/active_directory/key.svg;fontSize=14;fontStyle=1" vertex="1" parent="1">
          <mxGeometry x="395" y="10" width="50" height="37" as="geometry" />
        </mxCell>
        <mxCell id="oXOLVcFQioFcgYXvXkA7-23" style="edgeStyle=orthogonalEdgeStyle;rounded=0;orthogonalLoop=1;jettySize=auto;html=1;fontColor=#ff0000;strokeColor=#ff0000;fontSize=14;fontStyle=1" edge="1" parent="1" source="oXOLVcFQioFcgYXvXkA7-22" target="oXOLVcFQioFcgYXvXkA7-21">
          <mxGeometry relative="1" as="geometry" />
        </mxCell>
        <mxCell id="oXOLVcFQioFcgYXvXkA7-22" value="" style="image;points=[];aspect=fixed;html=1;align=center;shadow=0;dashed=0;image=img/lib/allied_telesis/computer_and_terminals/Personal_Computer_with_Server.svg;fontSize=14;fontStyle=1" vertex="1" parent="1">
          <mxGeometry x="269" y="-2.6999999999999993" width="62.400000000000006" height="62.400000000000006" as="geometry" />
        </mxCell>
        <mxCell id="oXOLVcFQioFcgYXvXkA7-26" style="edgeStyle=orthogonalEdgeStyle;rounded=0;orthogonalLoop=1;jettySize=auto;html=1;entryX=1;entryY=0.25;entryDx=0;entryDy=0;entryPerimeter=0;strokeColor=#ff0000;fontSize=14;fontStyle=1" edge="1" parent="1" source="oXOLVcFQioFcgYXvXkA7-7" target="oXOLVcFQioFcgYXvXkA7-6">
          <mxGeometry relative="1" as="geometry">
            <mxPoint x="1220" y="360" as="targetPoint" />
            <Array as="points">
              <mxPoint x="690" y="260" />
              <mxPoint x="690" y="405" />
            </Array>
          </mxGeometry>
        </mxCell>
        <mxCell id="oXOLVcFQioFcgYXvXkA7-27" style="edgeStyle=orthogonalEdgeStyle;rounded=0;orthogonalLoop=1;jettySize=auto;html=1;fontSize=14;fontStyle=1" edge="1" parent="1" source="oXOLVcFQioFcgYXvXkA7-13" target="oXOLVcFQioFcgYXvXkA7-20">
          <mxGeometry relative="1" as="geometry">
            <Array as="points">
              <mxPoint x="850" y="260" />
              <mxPoint x="850" y="500" />
              <mxPoint x="470" y="500" />
              <mxPoint x="470" y="350" />
            </Array>
          </mxGeometry>
        </mxCell>
        <mxCell id="oXOLVcFQioFcgYXvXkA7-34" style="edgeStyle=orthogonalEdgeStyle;rounded=0;orthogonalLoop=1;jettySize=auto;html=1;startArrow=block;startFill=1;" edge="1" parent="1" source="oXOLVcFQioFcgYXvXkA7-28" target="oXOLVcFQioFcgYXvXkA7-12">
          <mxGeometry relative="1" as="geometry" />
        </mxCell>
        <mxCell id="oXOLVcFQioFcgYXvXkA7-28" value="Internet" style="html=1;verticalLabelPosition=bottom;align=center;labelBackgroundColor=#ffffff;verticalAlign=top;strokeWidth=2;strokeColor=#0080F0;shadow=0;dashed=0;shape=mxgraph.ios7.icons.wifi;pointerEvents=1;fontSize=14;fontStyle=1" vertex="1" parent="1">
          <mxGeometry x="70" y="296.5" width="70" height="60" as="geometry" />
        </mxCell>
        <mxCell id="oXOLVcFQioFcgYXvXkA7-29" style="edgeStyle=orthogonalEdgeStyle;rounded=0;orthogonalLoop=1;jettySize=auto;html=1;entryX=0;entryY=0.5;entryDx=0;entryDy=0;entryPerimeter=0;startArrow=block;startFill=1;" edge="1" parent="1" source="oXOLVcFQioFcgYXvXkA7-12" target="oXOLVcFQioFcgYXvXkA7-20">
          <mxGeometry relative="1" as="geometry" />
        </mxCell>
        <mxCell id="oXOLVcFQioFcgYXvXkA7-32" value="&lt;span style=&quot;font-size: 14px;&quot;&gt;Security Group&lt;/span&gt;" style="fontStyle=1;verticalAlign=top;align=center;spacingTop=-2;fillColor=none;rounded=0;whiteSpace=wrap;html=1;strokeColor=#914dd5;strokeWidth=2;dashed=1;container=1;collapsible=0;expand=0;recursiveResize=0;fontSize=14;" vertex="1" parent="1">
          <mxGeometry x="550" y="370" width="110" height="100.5" as="geometry" />
        </mxCell>
        <mxCell id="oXOLVcFQioFcgYXvXkA7-33" value="&lt;span style=&quot;font-size: 14px;&quot;&gt;Security Group&lt;/span&gt;" style="fontStyle=1;verticalAlign=top;align=center;spacingTop=-2;fillColor=none;rounded=0;whiteSpace=wrap;html=1;strokeColor=#914dd5;strokeWidth=2;dashed=1;container=1;collapsible=0;expand=0;recursiveResize=0;fontSize=14;" vertex="1" parent="1">
          <mxGeometry x="550" y="220" width="110" height="100.5" as="geometry" />
        </mxCell>
      </root>
    </mxGraphModel>
  </diagram>
</mxfile>
